<svg width="512" height="512" viewBox="0 0 512 512" fill="none" xmlns="http://www.w3.org/2000/svg">
  <rect width="512" height="512" rx="96" fill="url(#gradient)"/>
  <defs>
    <linearGradient id="gradient" x1="0%" y1="0%" x2="100%" y2="100%">
      <stop offset="0%" style="stop-color:#3b82f6;stop-opacity:1" />
      <stop offset="100%" style="stop-color:#8b5cf6;stop-opacity:1" />
    </linearGradient>
  </defs>
  
  <!-- Calculator Icon -->
  <rect x="128" y="96" width="256" height="320" rx="24" fill="white" opacity="0.9"/>
  <rect x="148" y="116" width="216" height="60" rx="12" fill="#1e293b"/>
  
  <!-- Display -->
  <text x="256" y="155" text-anchor="middle" fill="white" font-family="monospace" font-size="24" font-weight="bold">DropCalc</text>
  
  <!-- Buttons Grid -->
  <rect x="160" y="200" width="48" height="48" rx="8" fill="#3b82f6"/>
  <rect x="224" y="200" width="48" height="48" rx="8" fill="#3b82f6"/>
  <rect x="288" y="200" width="48" height="48" rx="8" fill="#3b82f6"/>
  
  <rect x="160" y="264" width="48" height="48" rx="8" fill="#6b7280"/>
  <rect x="224" y="264" width="48" height="48" rx="8" fill="#6b7280"/>
  <rect x="288" y="264" width="48" height="48" rx="8" fill="#6b7280"/>
  
  <rect x="160" y="328" width="48" height="48" rx="8" fill="#6b7280"/>
  <rect x="224" y="328" width="48" height="48" rx="8" fill="#6b7280"/>
  <rect x="288" y="328" width="48" height="48" rx="8" fill="#10b981"/>
  
  <!-- Dollar Sign -->
  <text x="440" y="140" text-anchor="middle" fill="white" font-family="Arial" font-size="48" font-weight="bold">$</text>
</svg>